<svg width="35" height="35" viewBox="0 0 35 35" fill="none" xmlns="http://www.w3.org/2000/svg">
<path fill-rule="evenodd" clip-rule="evenodd" d="M0 17.5C0 7.83502 7.83502 0 17.5 0C27.165 0 35 7.83502 35 17.5C35 27.165 27.165 35 17.5 35C7.83502 35 0 27.165 0 17.5ZM12.602 8.8096C10.8101 9.12998 9.36841 10.4562 8.91391 12.1997C8.75 12.8293 8.73882 13.1981 8.75745 18.082C8.76862 22.5674 8.77235 22.6717 8.84686 23.0182C9.26037 24.8846 10.5866 26.2145 12.4716 26.6541C12.7175 26.71 13.0304 26.7212 15.0459 26.7324C17.1321 26.7473 17.3482 26.7435 17.404 26.6877C17.4599 26.6318 17.4636 25.9128 17.4636 17.7617C17.4636 11.7191 17.4525 8.87293 17.4264 8.82078C17.3891 8.75372 17.3258 8.74999 15.1427 8.75372C13.3695 8.75744 12.8367 8.76862 12.602 8.8096ZM19.2518 17.7505C19.2518 12.8256 19.263 8.78726 19.2779 8.77608C19.2891 8.76118 20.0342 8.75 20.9282 8.75C22.2247 8.75 22.627 8.76118 22.8878 8.80589C24.8324 9.14117 26.3114 10.6052 26.6802 12.5462C26.7324 12.8181 26.7398 13.4551 26.7398 17.7281C26.7398 22.293 26.7452 22.8299 26.6013 23.3233C26.5765 23.4085 26.5471 23.4924 26.5126 23.5956C26.4492 23.7781 26.3263 24.0725 26.2332 24.2475C25.5067 25.6148 24.173 26.5349 22.6605 26.7063C22.3029 26.7435 19.412 26.7584 19.3114 26.7212C19.2556 26.6988 19.2518 25.8755 19.2518 17.7505Z" fill="#2979FF"/>
<path fill-rule="evenodd" clip-rule="evenodd" d="M23.2566 16.8899C23.8378 17.0427 24.3146 17.486 24.5083 18.0523C24.6313 18.4024 24.6275 18.9165 24.5046 19.2369C24.2774 19.8255 23.8303 20.239 23.2566 20.3918C22.3253 20.6339 21.3343 20.0714 21.0624 19.1475C20.9804 18.8644 20.9841 18.3875 21.0773 18.097C21.3567 17.1842 22.3253 16.6478 23.2566 16.8899Z" fill="#2979FF"/>
<path fill-rule="evenodd" clip-rule="evenodd" d="M15.9735 25.2981V17.7505V10.2029L14.5318 10.2066C12.9373 10.2103 12.7101 10.2327 12.2183 10.4301C11.2385 10.8213 10.5121 11.6893 10.2886 12.7361C10.2103 13.105 10.2103 22.3737 10.2923 22.7499C10.5419 23.9532 11.4323 24.8771 12.6318 25.1863C12.9112 25.2571 13.0602 25.2646 14.4573 25.2795L15.9735 25.2981ZM12.1401 12.8703C12.3301 12.7026 12.6877 12.5238 12.9224 12.4791C13.8612 12.2928 14.7702 12.9336 14.9304 13.891C15.0682 14.6957 14.5802 15.4817 13.7718 15.7537C13.5743 15.8208 13.47 15.8319 13.1757 15.8208C12.8516 15.8096 12.7883 15.7947 12.5387 15.6717C12.1773 15.4929 11.9128 15.2284 11.7377 14.8671C11.6185 14.6286 11.5999 14.5504 11.585 14.2561C11.5552 13.6898 11.7489 13.2093 12.1401 12.8703Z" fill="#2979FF"/>
</svg>
