<svg width="25" height="24" viewBox="0 0 25 24" fill="none" xmlns="http://www.w3.org/2000/svg">
<path fill-rule="evenodd" clip-rule="evenodd" d="M12.8027 0C6.17064 0 0.794312 5.37258 0.794312 12C0.794312 18.6274 6.17064 24 12.8027 24C19.4347 24 24.811 18.6274 24.811 12C24.811 5.37258 19.4347 0 12.8027 0ZM10.1625 5.63866C10.8456 5.60759 11.0639 5.59999 12.8033 5.59999H12.8013C14.5412 5.59999 14.7586 5.60759 15.4418 5.63866C16.1236 5.66986 16.5893 5.77773 16.9976 5.936C17.4192 6.09933 17.7754 6.318 18.1317 6.67401C18.488 7.02974 18.7068 7.38681 18.8709 7.80775C19.0283 8.21469 19.1364 8.67976 19.1684 9.3611C19.1991 10.0438 19.2071 10.2619 19.2071 12.0001C19.2071 13.7382 19.1991 13.9558 19.1684 14.6385C19.1364 15.3196 19.0283 15.7848 18.8709 16.1918C18.7068 16.6126 18.488 16.9697 18.1317 17.3254C17.7758 17.6815 17.4191 17.9007 16.998 18.0641C16.5905 18.2224 16.1245 18.3303 15.4427 18.3615C14.7596 18.3925 14.542 18.4001 12.8025 18.4001C11.0632 18.4001 10.8451 18.3925 10.1619 18.3615C9.48025 18.3303 9.01472 18.2224 8.60724 18.0641C8.18627 17.9007 7.82895 17.6815 7.4731 17.3254C7.11698 16.9697 6.89816 16.6126 6.73445 16.1917C6.5762 15.7848 6.46826 15.3197 6.4369 14.6384C6.40595 13.9557 6.39821 13.7382 6.39821 12.0001C6.39821 10.2619 6.40621 10.0436 6.43677 9.36097C6.46746 8.67989 6.57553 8.21469 6.73431 7.80762C6.89843 7.38681 7.11725 7.02974 7.4735 6.67401C7.82949 6.31813 8.1868 6.09947 8.60804 5.936C9.01526 5.77773 9.48065 5.66986 10.1625 5.63866Z" fill="white"/>
<path fill-rule="evenodd" clip-rule="evenodd" d="M12.2288 6.75335C12.3403 6.75318 12.4603 6.75323 12.5898 6.75329L12.8033 6.75335C14.5133 6.75335 14.716 6.75948 15.3913 6.79015C16.0157 6.81868 16.3546 6.92295 16.5804 7.01055C16.8792 7.12655 17.0923 7.26522 17.3163 7.48923C17.5405 7.71323 17.6793 7.92656 17.7956 8.22523C17.8833 8.45057 17.9878 8.78924 18.0162 9.41325C18.0469 10.0879 18.0535 10.2906 18.0535 11.9986C18.0535 13.7066 18.0469 13.9093 18.0162 14.584C17.9876 15.208 17.8833 15.5466 17.7956 15.772C17.6795 16.0706 17.5405 16.2833 17.3163 16.5072C17.0922 16.7312 16.8794 16.8699 16.5804 16.9859C16.3549 17.0739 16.0157 17.1779 15.3913 17.2064C14.7161 17.2371 14.5133 17.2437 12.8033 17.2437C11.0932 17.2437 10.8905 17.2371 10.2153 17.2064C9.59089 17.1776 9.25198 17.0733 9.02609 16.9857C8.72721 16.8697 8.51373 16.7311 8.28957 16.5071C8.06541 16.2831 7.92665 16.0702 7.8103 15.7714C7.72264 15.5461 7.61816 15.2074 7.58974 14.5834C7.55906 13.9088 7.55292 13.7061 7.55292 11.997C7.55292 10.2879 7.55906 10.0863 7.58974 9.41165C7.6183 8.78764 7.72264 8.44897 7.8103 8.22337C7.92638 7.9247 8.06541 7.71136 8.28957 7.48736C8.51373 7.26336 8.72721 7.12469 9.02609 7.00842C9.25185 6.92042 9.59089 6.81642 10.2153 6.78775C10.8061 6.76108 11.0351 6.75308 12.2288 6.75175V6.75335ZM16.222 7.81603C15.7977 7.81603 15.4534 8.15963 15.4534 8.58377C15.4534 9.00777 15.7977 9.35178 16.222 9.35178C16.6463 9.35178 16.9905 9.00777 16.9905 8.58377C16.9905 8.15977 16.6463 7.81576 16.222 7.81576V7.81603ZM9.5143 12.0001C9.5143 10.185 10.9869 8.71344 12.8032 8.71337C14.6195 8.71337 16.0918 10.185 16.0918 12.0001C16.0918 13.8152 14.6196 15.2861 12.8033 15.2861C10.9869 15.2861 9.5143 13.8152 9.5143 12.0001Z" fill="white"/>
<path d="M12.8033 9.86671C13.9823 9.86671 14.9381 10.8218 14.9381 12.0001C14.9381 13.1782 13.9823 14.1334 12.8033 14.1334C11.6242 14.1334 10.6685 13.1782 10.6685 12.0001C10.6685 10.8218 11.6242 9.86671 12.8033 9.86671Z" fill="white"/>
</svg>
