<svg width="25" height="24" viewBox="0 0 25 24" fill="none" xmlns="http://www.w3.org/2000/svg">
<path fill-rule="evenodd" clip-rule="evenodd" d="M0.819946 12C0.819946 18.6274 6.19627 24 12.8283 24C19.4603 24 24.8367 18.6274 24.8367 12C24.8367 5.37258 19.4603 0 12.8283 0C6.19627 0 0.819946 5.37258 0.819946 12ZM10.6268 17.5L10.8311 14.4411L10.8309 14.441L16.3993 9.41951C16.6436 9.20277 16.3459 9.09708 16.0215 9.29367L9.14939 13.6262L6.18102 12.7003C5.53998 12.5042 5.53538 12.064 6.32494 11.7475L17.892 7.29044C18.4203 7.05076 18.9302 7.41724 18.7285 8.22526L16.7586 17.5016C16.6211 18.1607 16.2225 18.3184 15.6703 18.0139L12.6696 15.7985L11.2272 17.2C11.2226 17.2044 11.2181 17.2088 11.2136 17.2132C11.0523 17.3702 10.9188 17.5 10.6268 17.5Z" fill="white"/>
</svg>
